<svg xmlns="http://www.w3.org/2000/svg" width="1440" height="1024" viewBox="0 0 1440 1024"><defs><style>.s{font-family:Inter,Arial,sans-serif}.ink{fill:#172033}.muted{fill:#7D879B}.white{fill:#fff}.body{font-size:14px;font-weight:500}.small{font-size:12px;font-weight:500}.h1{font-size:28px;font-weight:750;letter-spacing:-.8px}.h2{font-size:18px;font-weight:700}.label{font-size:11px;font-weight:700;letter-spacing:.9px}</style></defs><rect width="1440" height="1024" fill="#F6F8FC"/><rect width="248" height="1024" fill="#0E1728"/><g class="s"><circle cx="39" cy="42" r="17" fill="#BDF2D3"/><text x="67" y="49" fill="#fff" font-size="18" font-weight="750">Astra</text><text x="24" y="112" fill="#647189" class="label">ОСНОВНАЯ НАВИГАЦИЯ</text><text x="70" y="161" fill="#AAB4C4" class="body">⌂  Обзор</text><text x="70" y="221" fill="#AAB4C4" class="body">◫  Продукты</text><text x="70" y="281" fill="#AAB4C4" class="body">◇  Рецепты</text><text x="70" y="342" fill="#AAB4C4" class="body">☷  Дневник питания</text><text x="70" y="402" fill="#AAB4C4" class="body">↗  Прогресс</text><rect x="16" y="432" width="216" height="48" rx="12" fill="#26364A"/><text x="70" y="461" fill="#fff" class="body">⚡  Тренировки</text><text x="70" y="522" fill="#AAB4C4" class="body">◈  Информация</text><line x1="24" y1="558" x2="224" y2="558" stroke="#26344A"/><text x="70" y="604" fill="#AAB4C4" class="body">✉  Обратная связь</text></g><g class="s"><text x="288" y="68" class="muted label">PERSONAL WORKSPACE</text><text x="288" y="108" class="ink h1">Тренировки</text><text x="288" y="136" class="muted body">Комплексы, упражнения и история нагрузки</text><rect x="1122" y="52" width="94" height="44" rx="12" fill="#E2F7EB"/><text x="1142" y="79" fill="#329A63" class="small" font-weight="700">＋ Запись</text><rect x="1230" y="52" width="86" height="44" rx="12" fill="#172033"/><text x="1248" y="79" fill="#fff" class="small" font-weight="700">Создать</text><rect x="288" y="178" width="1112" height="112" rx="18" fill="#172033"/><text x="320" y="216" fill="#BDF2D3" class="label">БЛИЖАЙШАЯ ТРЕНИРОВКА</text><text x="320" y="256" fill="#fff" class="h2">Силовая · сегодня, 18:30</text><text x="806" y="216" fill="#AAB6C8" class="small">4 упражнения · 35 минут</text><rect x="1094" y="222" width="198" height="40" rx="10" fill="#BDF2D3"/><text x="1144" y="247" fill="#172033" class="small" font-weight="700">Открыть тренировку</text><text x="288" y="346" class="ink h2">Разделы</text><rect x="288" y="374" width="256" height="104" rx="16" fill="#fff" stroke="#E5EAF2"/><text x="316" y="408" class="ink body" font-weight="700">🏋️ Тренировки</text><text x="316" y="434" class="muted small">Комплексы и программы</text><text x="482" y="434" fill="#6F82FF" class="h2">12</text><rect x="564" y="374" width="256" height="104" rx="16" fill="#fff" stroke="#E5EAF2"/><text x="592" y="408" class="ink body" font-weight="700">💪 Упражнения</text><text x="592" y="434" class="muted small">Справочник упражнений</text><text x="758" y="434" fill="#6F82FF" class="h2">86</text><rect x="840" y="374" width="256" height="104" rx="16" fill="#fff" stroke="#E5EAF2"/><text x="868" y="408" class="ink body" font-weight="700">⚙ Инвентарь</text><text x="868" y="434" class="muted small">Тренажёры и оборудование</text><text x="1034" y="434" fill="#6F82FF" class="h2">24</text><rect x="1116" y="374" width="284" height="104" rx="16" fill="#fff" stroke="#E5EAF2"/><text x="1144" y="408" class="ink body" font-weight="700">📦 История</text><text x="1144" y="434" class="muted small">Пройденные и отменённые</text><text x="1340" y="434" fill="#6F82FF" class="h2">31</text><text x="288" y="534" class="ink h2">Запланированные тренировки</text><rect x="288" y="566" width="1112" height="72" rx="14" fill="#fff" stroke="#E5EAF2"/><text x="316" y="596" class="ink body" font-weight="700">21 августа · Силовая</text><text x="316" y="618" class="muted small">Грудь и спина · 4 упражнения</text><text x="1082" y="608" fill="#329A63" class="small" font-weight="700">Запланирована</text><text x="1338" y="608" class="muted">→</text><rect x="288" y="656" width="1112" height="72" rx="14" fill="#fff" stroke="#E5EAF2"/><text x="316" y="686" class="ink body" font-weight="700">24 августа · Ноги</text><text x="316" y="708" class="muted small">Ноги и ягодицы · 6 упражнений</text><text x="1082" y="698" fill="#329A63" class="small" font-weight="700">Запланирована</text><text x="1338" y="698" class="muted">→</text><rect x="288" y="770" width="1112" height="192" rx="20" fill="#E2F7EB"/><text x="320" y="810" fill="#329A63" class="label">ПОДСКАЗКА</text><text x="320" y="850" class="ink h2">Добавляйте рабочий вес и RIR после подходов</text><text x="320" y="878" class="muted body">Так прогресс становится виден не только по весам, но и по ощущениям.</text><rect x="320" y="906" width="164" height="38" rx="10" fill="#172033"/><text x="354" y="930" fill="#fff" class="small" font-weight="700">Добавить запись</text></g></svg>
