<svg xmlns="http://www.w3.org/2000/svg" width="1440" height="1120" viewBox="0 0 1440 1120"><defs><style>.s{font-family:Inter,Arial,sans-serif}.ink{fill:#172033}.muted{fill:#7D879B}.white{fill:#fff}.body{font-size:14px;font-weight:500}.small{font-size:12px;font-weight:500}.h1{font-size:30px;font-weight:750;letter-spacing:-.9px}.h2{font-size:18px;font-weight:700}.label{font-size:10px;font-weight:700;letter-spacing:1px}</style></defs><rect width="1440" height="1120" fill="#F6F8FC"/><rect width="248" height="1120" fill="#0E1728"/><g class="s"><circle cx="39" cy="42" r="17" fill="#BDF2D3"/><text x="67" y="49" fill="#fff" font-size="18" font-weight="750">Astra</text><text x="24" y="112" fill="#647189" class="label">ОСНОВНАЯ НАВИГАЦИЯ</text><text x="70" y="161" fill="#AAB4C4" class="body">⌂  Обзор</text><text x="70" y="221" fill="#AAB4C4" class="body">◫  Продукты</text><text x="70" y="281" fill="#AAB4C4" class="body">◇  Рецепты</text><text x="70" y="341" fill="#AAB4C4" class="body">☷  Дневник питания</text><text x="70" y="401" fill="#AAB4C4" class="body">↗  Прогресс</text><rect x="16" y="432" width="216" height="48" rx="12" fill="#26364A"/><text x="70" y="461" fill="#fff" class="body">⚡  Тренировки</text><text x="70" y="521" fill="#AAB4C4" class="body">◈  Информация</text><line x1="24" y1="558" x2="224" y2="558" stroke="#26344A"/><text x="70" y="604" fill="#AAB4C4" class="body">✉  Обратная связь</text></g><g class="s"><text x="288" y="68" class="muted label">PERSONAL WORKSPACE</text><text x="288" y="108" class="ink h1">Тренировки</text><text x="288" y="136" class="muted body">План, упражнения и история нагрузки в одном месте</text><rect x="1100" y="52" width="108" height="44" rx="12" fill="#E2F7EB"/><text x="1122" y="79" fill="#329A63" class="small" font-weight="700">＋ Запись</text><rect x="1220" y="52" width="96" height="44" rx="12" fill="#172033"/><text x="1240" y="79" fill="#fff" class="small" font-weight="700">＋ План</text><rect x="288" y="178" width="1028" height="118" rx="20" fill="#172033"/><text x="320" y="216" fill="#BDF2D3" class="label">БЛИЖАЙШАЯ ТРЕНИРОВКА</text><text x="320" y="256" fill="#fff" class="h2">Силовая · грудь и спина</text><text x="780" y="216" fill="#AAB6C8" class="small">Сегодня · 18:30</text><text x="780" y="256" fill="#fff" class="body" font-weight="700">4 упражнения · 35 минут</text><rect x="1090" y="230" width="194" height="40" rx="10" fill="#BDF2D3"/><text x="1130" y="254" fill="#172033" class="small" font-weight="700">Открыть тренировку</text><text x="288" y="344" class="ink h2">Разделы</text><g><rect x="288" y="372" width="244" height="106" rx="16" fill="#fff" stroke="#E5EAF2"/><text x="320" y="410" class="ink body" font-weight="700">🏋️ Тренировки</text><text x="320" y="438" class="muted small">Комплексы и программы</text><text x="482" y="438" fill="#6F82FF" class="h2">12</text><rect x="552" y="372" width="244" height="106" rx="16" fill="#fff" stroke="#E5EAF2"/><text x="584" y="410" class="ink body" font-weight="700">💪 Упражнения</text><text x="584" y="438" class="muted small">Справочник упражнений</text><text x="746" y="438" fill="#6F82FF" class="h2">86</text><rect x="816" y="372" width="244" height="106" rx="16" fill="#fff" stroke="#E5EAF2"/><text x="848" y="410" class="ink body" font-weight="700">⚙ Инвентарь</text><text x="848" y="438" class="muted small">Оборудование</text><text x="1010" y="438" fill="#6F82FF" class="h2">24</text><rect x="1080" y="372" width="236" height="106" rx="16" fill="#fff" stroke="#E5EAF2"/><text x="1112" y="410" class="ink body" font-weight="700">📦 История</text><text x="1112" y="438" class="muted small">Завершённые тренировки</text><text x="1270" y="438" fill="#6F82FF" class="h2">31</text></g><text x="288" y="536" class="ink h2">План тренировок</text><rect x="288" y="566" width="1028" height="76" rx="14" fill="#fff" stroke="#E5EAF2"/><text x="320" y="598" class="ink body" font-weight="700">21 августа · Силовая</text><text x="320" y="620" class="muted small">Грудь и спина · 4 упражнения</text><text x="1080" y="610" fill="#329A63" class="small" font-weight="700">Запланирована</text><text x="1270" y="610" class="muted">→</text><rect x="288" y="660" width="1028" height="76" rx="14" fill="#fff" stroke="#E5EAF2"/><text x="320" y="692" class="ink body" font-weight="700">24 августа · Ноги</text><text x="320" y="714" class="muted small">Ноги и ягодицы · 6 упражнений</text><text x="1080" y="704" fill="#329A63" class="small" font-weight="700">Запланирована</text><text x="1270" y="704" class="muted">→</text><text x="288" y="794" class="ink h2">Последние записи</text><rect x="288" y="824" width="1028" height="138" rx="20" fill="#E2F7EB"/><text x="320" y="864" fill="#329A63" class="label">ПОДСКАЗКА</text><text x="320" y="902" class="ink h2">Добавляйте рабочий вес и RIR после подходов</text><text x="320" y="928" class="muted body">Так прогресс становится виден не только по весам, но и по ощущениям.</text><rect x="1134" y="886" width="150" height="38" rx="10" fill="#172033"/><text x="1165" y="910" fill="#fff" class="small" font-weight="700">Добавить запись</text></g></svg>
