<svg xmlns="http://www.w3.org/2000/svg" width="1260" height="600" viewBox="0 0 1260 600"><defs><style>.s{font-family:Inter,Arial,sans-serif}.ink{fill:#172033}.muted{fill:#7D879B}.h1{font-size:26px;font-weight:750;letter-spacing:-.6px}.label{font-size:13px;font-weight:650}.line{fill:none;stroke:#172033;stroke-width:2.2;stroke-linecap:round;stroke-linejoin:round}</style></defs><rect width="1260" height="600" fill="#F6F8FC"/><g class="s"><text x="56" y="64" class="ink h1">Категории рецептов</text><text x="56" y="92" class="muted" font-size="14">Карточки блюд · спокойные цвета · 48×48 icon area</text><g transform="translate(56 132)"><rect width="204" height="150" rx="18" fill="#fff" stroke="#E5EAF2"/><circle cx="102" cy="54" r="28" fill="#E2F7EB"/><circle cx="102" cy="54" r="16" class="line"/><path d="M83 54h38m-19-19v38" class="line"/><text x="102" y="120" text-anchor="middle" class="label ink">Основные блюда</text></g><g transform="translate(280 132)"><rect width="204" height="150" rx="18" fill="#fff" stroke="#E5EAF2"/><circle cx="102" cy="54" r="28" fill="#FFF1DE"/><circle cx="102" cy="57" r="14" class="line"/><path d="M102 43v14m-7-8h14" class="line"/><text x="102" y="120" text-anchor="middle" class="label ink">Завтраки</text></g><g transform="translate(504 132)"><rect width="204" height="150" rx="18" fill="#fff" stroke="#E5EAF2"/><circle cx="102" cy="54" r="28" fill="#F0F1FF"/><path d="M80 45h44l-5 20H85l-5-20Zm7 20 5 10h20l5-10M91 38l22 22" class="line"/><text x="102" y="120" text-anchor="middle" class="label ink">Врапы</text></g><g transform="translate(728 132)"><rect width="204" height="150" rx="18" fill="#fff" stroke="#E5EAF2"/><circle cx="102" cy="54" r="28" fill="#FDE7E2"/><path d="M82 66h40c-1-13-8-23-20-23S83 53 82 66Zm8 0v-7m12 7v-7m12 7v-7" class="line"/><text x="102" y="120" text-anchor="middle" class="label ink">Десерты</text></g><g transform="translate(952 132)"><rect width="204" height="150" rx="18" fill="#fff" stroke="#E5EAF2"/><circle cx="102" cy="54" r="28" fill="#FFF1DE"/><path d="M80 54c0-9 13-17 22-17s22 8 22 17-13 17-22 17-22-8-22-17Zm22-17v34" class="line"/><text x="102" y="120" text-anchor="middle" class="label ink">Гарниры</text></g><g transform="translate(56 308)"><rect width="204" height="150" rx="18" fill="#fff" stroke="#E5EAF2"/><circle cx="102" cy="54" r="28" fill="#E2F7EB"/><path d="M80 58c0-15 44-15 44 0 0 10-9 17-22 17s-22-7-22-17Zm8-5c4-8 9-12 14-15m11 15c-4-8-9-12-14-15" class="line"/><text x="102" y="120" text-anchor="middle" class="label ink">Салаты</text></g><g transform="translate(280 308)"><rect width="204" height="150" rx="18" fill="#fff" stroke="#E5EAF2"/><circle cx="102" cy="54" r="28" fill="#FDE7E2"/><path d="M88 37h28v34H88zM88 44h28m-20 10h12m-12 8h8" class="line"/><text x="102" y="120" text-anchor="middle" class="label ink">Соусы</text></g><g transform="translate(504 308)"><rect width="204" height="150" rx="18" fill="#fff" stroke="#E5EAF2"/><circle cx="102" cy="54" r="28" fill="#FFF1DE"/><circle cx="102" cy="55" r="15" class="line"/><path d="M92 39v-7m20 7v-7M92 55h20" class="line"/><text x="102" y="120" text-anchor="middle" class="label ink">Перекусы</text></g><g transform="translate(728 308)"><rect width="204" height="150" rx="18" fill="#fff" stroke="#E5EAF2"/><circle cx="102" cy="54" r="28" fill="#DFF2F7"/><path d="M88 38h28v32H88zM88 45h28m-12-7v-7h-4v7m3 10v9" class="line"/><text x="102" y="120" text-anchor="middle" class="label ink">Напитки</text></g><g transform="translate(952 308)"><rect width="204" height="150" rx="18" fill="#fff" stroke="#E5EAF2"/><circle cx="102" cy="54" r="28" fill="#E6E7FF"/><path d="M82 43h40v24H82zM88 43v-7h28v7m-18 8h12" class="line"/><text x="102" y="120" text-anchor="middle" class="label ink">Готовые блюда</text></g><text x="56" y="532" class="muted" font-size="12">Использование: grid карточек, фильтр категорий, empty state «Нет рецептов в категории».</text></g></svg>
